# xmcd
#
# Track frame offsets: 
#        150
#        23030
#        43454
#        67622
#        101564
#        122257
#        142581
#        158332
#        178652
#        207634
#        229617
#        247833
#        271462
#        285440
#        301455
#        315258
#
# Disc length: 4689 seconds
#
# Revision: 0
# Processed by: cddbd v1.5.2PL0 Copyright (c) Steve Scherf et al.
# Submitted via: ExactAudioCopyFreeDBPlugin 1.0
#
DISCID=c6124f10
DTITLE=14 Iced Bears - Hold On Inside: Complete Recordings 1991-1986 [
DTITLE=Disc 1]
DYEAR=2013
DGENRE=Indiepop
TTITLE0=Hold On
TTITLE1=Heaven Star
TTITLE2=Smooth In The Sun
TTITLE3=These Are The Things
TTITLE4=When It Comes
TTITLE5=Rare (Like You Are)
TTITLE6=Love On A Sugar Mountain
TTITLE7=Eyes
TTITLE8=Red Now
TTITLE9=Summer Nights
TTITLE10=In The Morning
TTITLE11=Falling Backwards
TTITLE12=World I Love
TTITLE13=Rise
TTITLE14=Beautiful Child
TTITLE15=The Wonder Of Coincidence 1
EXTD=
EXTT0=
EXTT1=
EXTT2=
EXTT3=
EXTT4=
EXTT5=
EXTT6=
EXTT7=
EXTT8=
EXTT9=
EXTT10=
EXTT11=
EXTT12=
EXTT13=
EXTT14=
EXTT15=
PLAYORDER=
